<svg width="137.02" height="119.002" viewBox="0 0 137.02 119.002" xmlns="http://www.w3.org/2000/svg"><g id="svgGroup" stroke-linecap="round" fill-rule="evenodd" font-size="9pt" stroke="#610610" stroke-width="0" fill="#610610" style="stroke:#610610;stroke-width:0;fill:#610610"><path d="M 35.87 119.001 L 3.74 119.001 A 3.591 3.591 0 0 1 1.14 117.93 A 4.481 4.481 0 0 1 1.105 117.896 A 5.386 5.386 0 0 1 0.571 117.281 Q 0.314 116.932 0.173 116.592 A 2.13 2.13 0 0 1 0 115.771 A 9.833 9.833 0 0 1 0.013 115.238 Q 0.04 114.743 0.122 114.411 A 2.15 2.15 0 0 1 0.17 114.241 L 37.23 5.611 A 8.582 8.582 0 0 1 38.52 2.805 Q 40.029 0.724 42.801 0.187 A 10.941 10.941 0 0 1 44.88 0.001 L 92.14 0.001 Q 97.754 0.001 99.505 4.721 A 10.488 10.488 0 0 1 99.79 5.611 L 136.85 114.241 Q 137.02 114.751 137.02 115.771 Q 137.02 116.54 136.392 117.357 A 5.543 5.543 0 0 1 135.915 117.896 A 3.722 3.722 0 0 1 134.537 118.789 A 3.687 3.687 0 0 1 133.28 119.001 L 101.15 119.001 A 7.808 7.808 0 0 1 97.458 118.154 Q 95.756 117.258 94.583 115.413 A 12.191 12.191 0 0 1 93.5 113.221 L 89.25 101.321 L 47.77 101.321 L 43.52 113.221 A 11.506 11.506 0 0 1 42.07 115.95 Q 39.866 118.941 36.024 119 A 10.112 10.112 0 0 1 35.87 119.001 Z M 56.44 68.171 L 80.58 68.171 L 68.51 32.811 L 56.44 68.171 Z" vector-effect="non-scaling-stroke"/></g></svg>