<svg width="125.972" height="122.402" viewBox="0 0 125.972 122.402" xmlns="http://www.w3.org/2000/svg"><g id="svgGroup" stroke-linecap="round" fill-rule="evenodd" font-size="9pt" stroke="#ffffff" stroke-width="0" fill="#ffffff" style="stroke:#ffffff;stroke-width:0;fill:#ffffff"><path d="M 45.901 47.601 L 45.901 74.801 A 16.564 16.564 0 0 0 46.479 79.302 A 11.88 11.88 0 0 0 50.576 85.511 A 16.428 16.428 0 0 0 57.097 88.621 Q 59.509 89.201 62.335 89.247 A 30.047 30.047 0 0 0 62.816 89.251 Q 69.387 89.251 72.816 87.455 A 8.803 8.803 0 0 0 73.781 86.871 A 15.839 15.839 0 0 0 77.257 83.494 Q 78.472 81.909 79.476 79.901 Q 80.81 77.234 82.631 76.116 A 5.403 5.403 0 0 1 85.511 75.311 L 122.231 75.311 A 3.591 3.591 0 0 1 124.832 76.381 A 4.481 4.481 0 0 1 124.866 76.416 A 3.722 3.722 0 0 1 125.76 77.793 A 3.687 3.687 0 0 1 125.971 79.051 Q 125.971 94.69 111.332 107.668 A 65.919 65.919 0 0 1 111.011 107.951 A 45.459 45.459 0 0 1 102.916 113.465 Q 97.714 116.283 91.121 118.406 A 78.064 78.064 0 0 1 78.516 121.273 Q 72.265 122.189 65.19 122.361 A 136.339 136.339 0 0 1 61.881 122.401 A 94.767 94.767 0 0 1 43.416 120.668 A 78.239 78.239 0 0 1 31.196 117.216 Q 17.341 112.031 8.671 100.216 A 44.213 44.213 0 0 1 0.767 80.961 A 59.607 59.607 0 0 1 0.001 71.231 L 0.001 51.171 A 56.548 56.548 0 0 1 1.661 37.156 A 43.613 43.613 0 0 1 8.671 22.101 A 50.554 50.554 0 0 1 33.956 4.235 Q 42.579 1.324 53.187 0.414 A 117.737 117.737 0 0 1 63.241 0.001 Q 78.711 0.001 91.121 3.996 Q 103.531 7.991 111.011 14.451 Q 125.971 27.541 125.971 43.351 A 3.591 3.591 0 0 1 124.901 45.951 A 4.481 4.481 0 0 1 124.866 45.986 A 3.722 3.722 0 0 1 123.489 46.879 A 3.687 3.687 0 0 1 122.231 47.091 L 85.511 47.091 A 5.625 5.625 0 0 1 81.359 45.255 Q 80.582 44.457 79.914 43.312 A 14.337 14.337 0 0 1 79.476 42.501 Q 77.192 37.931 73.812 35.552 A 14.062 14.062 0 0 0 73.781 35.531 A 10.439 10.439 0 0 0 71.102 34.225 Q 68.406 33.321 64.379 33.178 A 44.002 44.002 0 0 0 62.816 33.151 A 24.948 24.948 0 0 0 57.6 33.666 Q 54.155 34.402 51.523 36.192 A 15.179 15.179 0 0 0 50.576 36.891 A 12.155 12.155 0 0 0 46.11 44.804 A 18.049 18.049 0 0 0 45.901 47.601 Z" vector-effect="non-scaling-stroke"/></g></svg>