<svg width="116.62" height="119.002" viewBox="0 0 116.62 119.002" xmlns="http://www.w3.org/2000/svg"><g id="svgGroup" stroke-linecap="round" fill-rule="evenodd" font-size="9pt" stroke="#ffffff" stroke-width="0" fill="#ffffff" style="stroke:#ffffff;stroke-width:0;fill:#ffffff"><path d="M 80.41 0.002 L 112.03 0.002 Q 113.9 0.002 115.26 1.362 A 4.608 4.608 0 0 1 116.336 2.989 A 4.477 4.477 0 0 1 116.62 4.592 L 116.62 114.412 Q 116.62 116.282 115.26 117.642 A 4.608 4.608 0 0 1 113.633 118.718 A 4.477 4.477 0 0 1 112.03 119.002 L 84.66 119.002 A 8.012 8.012 0 0 1 78.561 116.268 A 11.439 11.439 0 0 1 77.86 115.432 L 40.8 68.172 L 40.8 114.412 Q 40.8 116.282 39.44 117.642 A 4.608 4.608 0 0 1 37.813 118.718 A 4.477 4.477 0 0 1 36.21 119.002 L 4.59 119.002 Q 2.72 119.002 1.36 117.642 A 4.608 4.608 0 0 1 0.284 116.014 A 4.477 4.477 0 0 1 0 114.412 L 0 4.592 Q 0 2.722 1.36 1.362 A 4.608 4.608 0 0 1 2.987 0.286 A 4.477 4.477 0 0 1 4.59 0.002 L 32.13 0.002 A 7.784 7.784 0 0 1 38.099 2.605 A 10.253 10.253 0 0 1 38.76 3.402 L 75.82 54.572 L 75.82 4.592 Q 75.82 2.722 77.18 1.362 A 4.608 4.608 0 0 1 78.807 0.286 A 4.477 4.477 0 0 1 80.41 0.002 Z" vector-effect="non-scaling-stroke"/></g></svg>